<svg width="36" height="36" viewBox="0 0 36 36" fill="none" xmlns="http://www.w3.org/2000/svg">
<path d="M14.3574 17.06C14.6108 17.06 14.7374 17.5267 14.7374 18.46C14.7374 18.74 14.7041 19.0733 14.6374 19.46C14.5841 19.8333 14.4774 20.02 14.3174 20.02H11.7774V22.02H15.4574C15.6841 22.02 15.8374 22.3133 15.9174 22.9C15.9574 23.1533 15.9774 23.4267 15.9774 23.72C15.9774 24 15.9374 24.3667 15.8574 24.82C15.7774 25.2733 15.6441 25.5 15.4574 25.5H8.61742C8.11076 25.5 7.85742 25.2933 7.85742 24.88V12.02C7.85742 11.6733 8.01076 11.5 8.31742 11.5H15.4774C15.7574 11.5 15.8974 12.0933 15.8974 13.28C15.8974 14.4533 15.7574 15.04 15.4774 15.04H11.7774V17.06H14.3574ZM25.1207 21.32L25.1607 18.6C25.1607 18.4133 25.354 18.2933 25.7407 18.24C26.1274 18.1733 26.4474 18.14 26.7007 18.14L27.4807 18.2C27.9874 18.28 28.2407 18.42 28.2407 18.62L28.1607 24.88C27.894 25.0667 27.354 25.2533 26.5407 25.44C25.7407 25.6133 24.8207 25.7 23.7807 25.7C21.8474 25.7 20.2874 25.0733 19.1007 23.82C17.914 22.5667 17.3207 20.7267 17.3207 18.3C17.3207 16.2333 17.9007 14.5533 19.0607 13.26C20.2207 11.9667 21.8274 11.32 23.8807 11.32C24.814 11.32 25.654 11.4133 26.4007 11.6C27.1607 11.7733 27.6807 12.0133 27.9607 12.32C27.974 12.4267 27.9807 12.6267 27.9807 12.92C27.9807 13.2133 27.8807 13.6333 27.6807 14.18C27.4807 14.7133 27.254 15.1133 27.0007 15.38C26.7474 15.6467 26.5607 15.78 26.4407 15.78C26.334 15.78 26.214 15.7333 26.0807 15.64C25.9607 15.5333 25.714 15.4267 25.3407 15.32C24.9674 15.2 24.6074 15.14 24.2607 15.14C23.434 15.14 22.7607 15.4067 22.2407 15.94C21.734 16.4733 21.4807 17.3 21.4807 18.42C21.4807 19.54 21.7407 20.3933 22.2607 20.98C22.794 21.5533 23.4007 21.84 24.0807 21.84C24.774 21.84 25.1207 21.6667 25.1207 21.32Z" fill="#FF26B7"/>
</svg>
